<svg width="173" height="43" viewBox="0 0 173 43" fill="none" xmlns="http://www.w3.org/2000/svg">
<g clip-path="url(#clip0_37_379)" filter="url(#filter0_i_37_379)">
<path d="M132.857 43H120.367C115.263 43 111.11 38.7992 111.11 33.6372V9.36275C111.11 4.20075 115.263 0 120.367 0H132.857V6.24183H120.367C118.664 6.24183 117.281 7.64001 117.281 9.36275V33.6372C117.281 35.36 118.664 36.7582 120.367 36.7582H132.857V43Z" fill="#297F50"/>
<path d="M15.5758 21.1099H9.25662C7.5534 21.1099 6.17108 19.7117 6.17108 17.989V9.36275C6.17108 7.64001 7.5534 6.24183 9.25662 6.24183H21.7469V0H9.25662C4.15314 0 0 4.20075 0 9.36275V17.989C0 23.151 4.15314 27.3517 9.25662 27.3517H15.5758C17.279 27.3517 18.6613 28.7499 18.6613 30.4726V33.6372C18.6613 35.36 17.279 36.7582 15.5758 36.7582H3.08554V43H15.5758C20.6793 43 24.8324 38.7992 24.8324 33.6372V30.4726C24.8324 25.3106 20.6793 21.1099 15.5758 21.1099Z" fill="#297F50"/>
<path d="M42.5558 0H26.98V6.24183H42.5558C44.259 6.24183 45.6413 7.64001 45.6413 9.36275V21.1099H36.2366C31.1331 21.1099 26.98 25.3106 26.98 30.4726V33.6372C26.98 38.7992 31.1331 43 36.2366 43H42.5558C47.6593 43 51.8124 38.7992 51.8124 33.6372V9.36275C51.8124 4.20075 47.6593 0 42.5558 0ZM45.6413 33.6372C45.6413 35.36 44.259 36.7582 42.5558 36.7582H36.2366C34.5334 36.7582 33.1511 35.36 33.1511 33.6372V30.4726C33.1511 28.7499 34.5334 27.3517 36.2366 27.3517H45.6413V33.6372Z" fill="#297F50"/>
<path d="M166.829 0V21.1099H157.424C152.321 21.1099 148.167 25.3106 148.167 30.4726V33.6372C148.167 38.7992 152.321 43 157.424 43H163.743C168.847 43 173 38.7992 173 33.6372V0H166.829ZM166.829 33.6372C166.829 35.36 165.446 36.7582 163.743 36.7582H157.424C155.721 36.7582 154.339 35.36 154.339 33.6372V30.4726C154.339 28.7499 155.721 27.3517 157.424 27.3517H166.829V33.6372Z" fill="#297F50"/>
<path d="M86.1237 0H79.8045C74.701 0 70.5479 4.20075 70.5479 9.36275V33.6372C70.5479 38.7992 74.701 43 79.8045 43H92.2947V36.7582H79.8045C78.1013 36.7582 76.7189 35.36 76.7189 33.6372V27.6014H86.1237C91.2271 27.6014 95.3803 23.4006 95.3803 18.2386V9.36275C95.3803 4.20075 91.2271 0 86.1237 0ZM89.2092 18.2386C89.2092 19.9614 87.8269 21.3596 86.1237 21.3596H76.7189V9.36275C76.7189 7.64001 78.1013 6.24183 79.8045 6.24183H86.1237C87.8269 6.24183 89.2092 7.64001 89.2092 9.36275V18.2386Z" fill="#297F50"/>
<path d="M142.62 6.24183C144.324 6.24183 145.705 4.84455 145.705 3.12092C145.705 1.39728 144.324 0 142.62 0C140.916 0 139.534 1.39728 139.534 3.12092C139.534 4.84455 140.916 6.24183 142.62 6.24183Z" fill="#297F50"/>
<path d="M145.705 9.08789H139.534V42.9998H145.705V9.08789Z" fill="#297F50"/>
<path d="M56.2741 9.36275V13.4636H53.96V19.7055H56.2741V42.9938H62.4452V19.7055H68.4003V13.4636H62.4452V9.36275C62.4452 9.23792 62.4699 6.24183 64.4446 6.24183H68.4003V0H64.4446C59.7114 0 56.2741 3.9386 56.2741 9.36275Z" fill="#297F50"/>
</g>
<defs>
<filter id="filter0_i_37_379" x="0" y="0" width="173" height="45" filterUnits="userSpaceOnUse" color-interpolation-filters="sRGB">
<feFlood flood-opacity="0" result="BackgroundImageFix"/>
<feBlend mode="normal" in="SourceGraphic" in2="BackgroundImageFix" result="shape"/>
<feColorMatrix in="SourceAlpha" type="matrix" values="0 0 0 0 0 0 0 0 0 0 0 0 0 0 0 0 0 0 127 0" result="hardAlpha"/>
<feOffset dy="2"/>
<feGaussianBlur stdDeviation="1"/>
<feComposite in2="hardAlpha" operator="arithmetic" k2="-1" k3="1"/>
<feColorMatrix type="matrix" values="0 0 0 0 0.000651042 0 0 0 0 0.217177 0 0 0 0 1 0 0 0 0.25 0"/>
<feBlend mode="normal" in2="shape" result="effect1_innerShadow_37_379"/>
</filter>
<clipPath id="clip0_37_379">
<rect width="173" height="43" fill="white"/>
</clipPath>
</defs>
</svg>
